<svg xmlns="http://www.w3.org/2000/svg" viewBox="0 0 56.44 31.21"><defs><style>.cls-1{fill:none;}.cls-1,.cls-2{stroke:#981780;stroke-miterlimit:10;stroke-width:1.71px;}.cls-2,.cls-4{fill:#981780;}.cls-3{fill:#fff;}</style></defs><title>Asset 8</title><g id="Layer_2" data-name="Layer 2"><g id="Layer_2-2" data-name="Layer 2"><rect class="cls-1" x="0.86" y="0.86" width="54.73" height="29.5" rx="14.75" ry="14.75"/><circle class="cls-2" cx="16.89" cy="15.61" r="11.33"/><path class="cls-3" d="M16.36,19.39a3.67,3.67,0,1,0-3.66-3.68A3.68,3.68,0,0,0,16.36,19.39Zm0-6.28a2.61,2.61,0,1,1-2.62,2.6A2.62,2.62,0,0,1,16.38,13.11Z"/><path class="cls-3" d="M16.92,10.35V8.66a.53.53,0,0,0-.54-.54.52.52,0,0,0-.53.53v1.69a.54.54,0,0,0,1.07,0Z"/><path class="cls-3" d="M15.81,21.09v1.69a.54.54,0,1,0,1.07,0V21.09a.53.53,0,0,0-.54-.54A.54.54,0,0,0,15.81,21.09Z"/><path class="cls-3" d="M20.56,12.31l1.2-1.19a.54.54,0,1,0-.76-.76l-1.2,1.19a.54.54,0,0,0,0,.76.57.57,0,0,0,.38.16A.51.51,0,0,0,20.56,12.31Z"/><path class="cls-3" d="M11,21.07a.49.49,0,0,0,.38.16.57.57,0,0,0,.38-.15l1.2-1.19a.54.54,0,0,0,0-.76.55.55,0,0,0-.76,0L11,20.31A.54.54,0,0,0,11,21.07Z"/><path class="cls-3" d="M24,15.74a.54.54,0,0,0-.54-.54H21.74a.54.54,0,1,0,0,1.07h1.69A.54.54,0,0,0,24,15.74Z"/><path class="cls-3" d="M9.31,16.23H11a.53.53,0,0,0,.53-.54.52.52,0,0,0-.53-.54H9.31a.53.53,0,0,0-.54.53A.54.54,0,0,0,9.31,16.23Z"/><path class="cls-3" d="M21.34,21.26a.55.55,0,0,0,.38-.15.54.54,0,0,0,0-.76l-1.19-1.2a.54.54,0,0,0-.76.76L21,21.11A.57.57,0,0,0,21.34,21.26Z"/><path class="cls-3" d="M13,12.29a.54.54,0,0,0,0-.76l-1.18-1.2a.54.54,0,0,0-.76,0,.53.53,0,0,0,0,.76l1.19,1.19a.52.52,0,0,0,.38.16A.54.54,0,0,0,13,12.29Z"/><path class="cls-4" d="M48.73,17.84a.61.61,0,0,0-.16-.32.56.56,0,0,0-.67-.12,4.84,4.84,0,0,1-2.1.47,4.91,4.91,0,0,1-2.53-.67,5,5,0,0,1-1.83-1.83,4.9,4.9,0,0,1-.67-2.52,5,5,0,0,1,.42-2A4.88,4.88,0,0,1,42.4,9.15a.6.6,0,0,0-.42-1,7,7,0,0,0-2.68.64,6.94,6.94,0,0,0-2.18,1.52,7.11,7.11,0,0,0,5.13,12,7.11,7.11,0,0,0,6.44-4.12A.6.6,0,0,0,48.73,17.84Zm-4,2.72a5.77,5.77,0,0,1-2.52.57,5.84,5.84,0,0,1-2.3-.47,5.88,5.88,0,0,1-3.15-3.15,5.84,5.84,0,0,1-.47-2.3,5.74,5.74,0,0,1,1.18-3.55,5.81,5.81,0,0,1,3-2.11A6.19,6.19,0,0,0,40.42,16a6.17,6.17,0,0,0,5.38,3.1,5.66,5.66,0,0,0,1-.09A5.88,5.88,0,0,1,44.77,20.56Z"/></g></g></svg>