<svg xmlns="http://www.w3.org/2000/svg" viewBox="0 0 39 36.95"><defs><style>.cls-1{fill:#9c2294;stroke:#9c2294;stroke-miterlimit:10;}.cls-2{fill:#f3d75d;}</style></defs><title>Asset 29</title><g id="Layer_2" data-name="Layer 2"><g id="Layer_2-2" data-name="Layer 2"><path class="cls-1" d="M23.51,25.2a.67.67,0,0,0-.68.68v6.17a3,3,0,0,1-3,3H4.9a3,3,0,0,1-3-3V25.78a.68.68,0,0,0-1.36,0v6.27a4.41,4.41,0,0,0,4.4,4.4H19.79a4.4,4.4,0,0,0,4.39-4.4V25.88A.68.68,0,0,0,23.51,25.2Z"/><path class="cls-1" d="M11.86,31.06a.71.71,0,0,0,.48.2.65.65,0,0,0,.48-.2l4.31-4.31a.68.68,0,0,0-1-1L13,29V15.18a.68.68,0,0,0-1.36,0V29L8.51,25.79a.68.68,0,1,0-1,1Z"/><circle class="cls-2" cx="27" cy="12" r="12"/></g></g></svg>