<svg xmlns="http://www.w3.org/2000/svg" viewBox="0 0 35.23 44.59"><defs><style>.cls-1{fill:#8a2a7d;}.cls-2{fill:none;stroke:#fff;stroke-miterlimit:10;stroke-width:1.92px;}.cls-3{font-size:6.4px;fill:#fff;font-family:MuseoSans-700, Museo Sans;}</style></defs><title>Asset 11</title><g id="Layer_2" data-name="Layer 2"><g id="Layer_2-2" data-name="Layer 2"><rect class="cls-1" width="35.23" height="35.23" rx="2.92" ry="2.92"/><path class="cls-1" d="M17.11,44.22l-6.34-11a.73.73,0,0,1,.63-1.09H24.09a.73.73,0,0,1,.63,1.09l-6.34,11A.73.73,0,0,1,17.11,44.22Z"/><g id="favorite"><path class="cls-2" d="M17.73,29.91l-1.64-1.65C10,22.87,6,19.23,6,14.78a6.36,6.36,0,0,1,6.45-6.45,7,7,0,0,1,5.28,2.46A7,7,0,0,1,23,8.33a6.35,6.35,0,0,1,6.45,6.45c0,4.45-4,8.09-10.09,13.48Z"/></g><text class="cls-3" transform="translate(12.25 20.38)">20x</text></g></g></svg>