<svg xmlns="http://www.w3.org/2000/svg" viewBox="0 0 236.14 171.33"><defs><style>.cls-1{fill:#f7f7f7;stroke:#ddd;}.cls-1,.cls-10,.cls-5{stroke-miterlimit:10;}.cls-2{fill:#fff;}.cls-3{fill:#e0c390;}.cls-4{fill:#7f7f7f;}.cls-5,.cls-9{fill:#212121;}.cls-5{stroke:#89007f;stroke-width:2px;}.cls-6{font-size:20px;}.cls-6,.cls-7,.cls-8{fill:#6d105c;font-family:MuseoSans-700, Museo Sans;}.cls-7{font-size:26px;}.cls-8,.cls-9{font-size:15px;}.cls-9{font-family:ArialMT, Arial;}.cls-10{fill:none;stroke:#d6d6d6;}</style></defs><title>Asset 25</title><g id="Layer_2" data-name="Layer 2"><g id="Layer_2-2" data-name="Layer 2"><rect class="cls-1" x="0.5" y="28.64" width="235.14" height="142.19" rx="2.92" ry="2.92" transform="translate(236.14 199.46) rotate(180)"/><path class="cls-1" d="M204.34.82,223.76,29a.73.73,0,0,1-.6,1.14H184.33a.73.73,0,0,1-.6-1.14L203.14.82A.72.72,0,0,1,204.34.82Z"/><circle class="cls-2" cx="41.54" cy="138.83" r="19"/><circle class="cls-3" cx="92.54" cy="138.83" r="19"/><circle class="cls-4" cx="143.54" cy="138.83" r="19"/><circle class="cls-5" cx="194.54" cy="138.83" r="19"/><text class="cls-6" transform="translate(52.89 62.59)">A</text><text class="cls-7" transform="translate(165.98 64.49)">A</text><text class="cls-8" transform="translate(14.5 94.73)">Lettertype</text><text class="cls-9" transform="translate(166.5 96.82)"><tspan xml:space="preserve">Arial  &gt;</tspan></text><line class="cls-10" x1="110.54" y1="29.83" x2="110.54" y2="73.83"/><line class="cls-10" x1="0.04" y1="74.33" x2="236.04" y2="74.33"/></g></g></svg>