<svg xmlns="http://www.w3.org/2000/svg" viewBox="0 0 191.17 138.59"><defs><style>.cls-1{fill:#f7f7f7;stroke:#ddd;}.cls-1,.cls-11,.cls-2,.cls-3{stroke-miterlimit:10;}.cls-1,.cls-11,.cls-2{stroke-width:0.81px;}.cls-2{fill:#fff;stroke:#e2e2e2;}.cls-3{fill:#e0c390;stroke:#93037f;stroke-width:1.62px;}.cls-4{fill:#7f7f7f;}.cls-5,.cls-9{fill:#212121;}.cls-6{font-size:16.19px;}.cls-6,.cls-7,.cls-8{fill:#6d105c;font-family:MuseoSans-700, Museo Sans;}.cls-7{font-size:21.05px;}.cls-8,.cls-9{font-size:12.14px;}.cls-9{font-family:ArialMT, Arial;}.cls-10{fill:#e2e0e2;}.cls-11{fill:none;stroke:#d6d6d6;}</style></defs><title>Asset 23</title><g id="Layer_2" data-name="Layer 2"><g id="Layer_2-2" data-name="Layer 2"><rect class="cls-1" x="0.4" y="23.08" width="190.36" height="115.11" rx="2.92" ry="2.92" transform="translate(191.17 161.26) rotate(180)"/><path class="cls-1" d="M165.54.72,181,23.16a.73.73,0,0,1-.6,1.15h-30.9a.73.73,0,0,1-.6-1.15L164.34.72A.73.73,0,0,1,165.54.72Z"/><circle class="cls-2" cx="33.63" cy="112.28" r="15.38"/><circle class="cls-3" cx="74.92" cy="112.28" r="15.38"/><circle class="cls-4" cx="116.2" cy="112.28" r="15.38"/><circle class="cls-5" cx="157.49" cy="112.28" r="15.38"/><text class="cls-6" transform="translate(42.81 50.56)">A</text><text class="cls-7" transform="translate(134.37 52.1)">A</text><text class="cls-8" transform="translate(11.74 76.58)">Lettertype</text><text class="cls-9" transform="translate(134.79 78.28)"><tspan xml:space="preserve">Arial  &gt;</tspan></text><rect class="cls-10" x="0.44" y="87.18" width="190.24" height="3.24"/><line class="cls-11" x1="89.49" y1="24.04" x2="89.49" y2="59.66"/></g></g></svg>