<svg xmlns="http://www.w3.org/2000/svg" viewBox="0 0 40.55 40.55"><defs><style>.cls-1{fill:#fff;}.cls-2{fill:#8a2a7d;}</style></defs><title>Asset 18</title><g id="Layer_2" data-name="Layer 2"><g id="Layer_2-2" data-name="Layer 2"><rect class="cls-1" width="40.55" height="40.55" rx="2.92" ry="2.92"/><path class="cls-2" d="M36.93,9.67H34.66V8.89a.67.67,0,0,0-.48-.66,19.06,19.06,0,0,0-4.81-.62,12.41,12.41,0,0,0-9,3.34c-2.67-2.76-6.33-3.34-9-3.34a19.06,19.06,0,0,0-4.81.62.66.66,0,0,0-.48.66v.77H3.84a.67.67,0,0,0-.67.67V31.64a.67.67,0,0,0,.67.67.66.66,0,0,0,.33-.09,23.54,23.54,0,0,1,16-1.33h.32c9.34-2.37,16,1.27,16.05,1.33a.67.67,0,0,0,.67,0,.65.65,0,0,0,.33-.57V10.34A.66.66,0,0,0,36.93,9.67ZM4.51,30.58V11H6.1V27.74a.66.66,0,0,0,.66.67h.11A29.06,29.06,0,0,1,11,28.07a17.52,17.52,0,0,1,5.7.86A24.58,24.58,0,0,0,4.51,30.58ZM11,26.74A29.37,29.37,0,0,0,7.41,27V9.42a18.21,18.21,0,0,1,4-.44c2.49,0,5.93.58,8.32,3.27l0,16.62C18.33,28,15.62,26.74,11,26.74Zm10-14.49C23.44,9.58,26.88,9,29.37,9a18.77,18.77,0,0,1,4,.44V27a27.25,27.25,0,0,0-3.61-.24c-4.55,0-7.26,1.22-8.67,2.12Zm15.2,18.33A24.53,24.53,0,0,0,24,28.93a17.34,17.34,0,0,1,5.72-.86,29.48,29.48,0,0,1,4.2.33.68.68,0,0,0,.76-.56s0-.07,0-.11V11h1.59Z"/></g></g></svg>