<svg xmlns="http://www.w3.org/2000/svg" viewBox="0 0 13.16 15.56"><defs><style>.cls-1{fill:#981780;}</style></defs><title>Asset 5</title><g id="Layer_2" data-name="Layer 2"><g id="Layer_1-2" data-name="Layer 1"><path class="cls-1" d="M13,.51a1.14,1.14,0,0,0-.54-.42A1.13,1.13,0,0,0,12,0H1.19A1.17,1.17,0,0,0,.74.09,1.14,1.14,0,0,0,.2.51a1.15,1.15,0,0,0-.2.64V14.41A1.1,1.1,0,0,0,.2,15a1,1,0,0,0,.54.42,1,1,0,0,0,.45.1,1.28,1.28,0,0,0,.86-.34l4.53-4.36,4.54,4.36a1.21,1.21,0,0,0,.85.33,1.06,1.06,0,0,0,.45-.09A1,1,0,0,0,13,15a1.1,1.1,0,0,0,.2-.63V1.15A1.15,1.15,0,0,0,13,.51Z"/></g></g></svg>