<svg xmlns="http://www.w3.org/2000/svg" viewBox="0 0 55.95 30.94"><defs><style>.cls-1,.cls-3{fill:#fff;}.cls-1,.cls-2{stroke:#981780;stroke-miterlimit:10;stroke-width:1.7px;}.cls-2,.cls-4{fill:#981780;}</style></defs><title>Asset 12</title><g id="Layer_2" data-name="Layer 2"><g id="Layer_2-2" data-name="Layer 2"><rect class="cls-1" x="0.85" y="0.85" width="54.25" height="29.25" rx="14.62" ry="14.62"/><circle class="cls-2" cx="16.74" cy="15.47" r="11.23"/><path class="cls-3" d="M16.22,19.22a3.64,3.64,0,1,0-3.63-3.65A3.64,3.64,0,0,0,16.22,19.22Zm0-6.22a2.59,2.59,0,0,1,0,5.17,2.59,2.59,0,1,1,0-5.17Z"/><path class="cls-3" d="M16.78,10.26V8.58a.52.52,0,0,0-.53-.53.52.52,0,0,0-.53.53v1.68a.54.54,0,0,0,1.07,0Z"/><path class="cls-3" d="M15.68,20.91v1.67a.54.54,0,1,0,1.07,0V20.91a.53.53,0,0,0-1.06,0Z"/><path class="cls-3" d="M20.38,12.21,21.57,11a.53.53,0,1,0-.75-.76l-1.19,1.18a.53.53,0,0,0,0,.75.49.49,0,0,0,.38.16A.51.51,0,0,0,20.38,12.21Z"/><path class="cls-3" d="M10.88,20.89a.52.52,0,0,0,.38.16.54.54,0,0,0,.38-.16l1.18-1.17a.55.55,0,0,0,0-.76.54.54,0,0,0-.76,0l-1.18,1.18A.53.53,0,0,0,10.88,20.89Z"/><path class="cls-3" d="M23.76,15.61a.53.53,0,0,0-.53-.54H21.56a.53.53,0,0,0-.54.53.52.52,0,0,0,.53.53h1.68A.53.53,0,0,0,23.76,15.61Z"/><path class="cls-3" d="M9.23,16.09H10.9a.54.54,0,1,0,0-1.07H9.23a.53.53,0,1,0,0,1.06Z"/><path class="cls-3" d="M21.16,21.08a.57.57,0,0,0,.38-.15.54.54,0,0,0,0-.76L20.36,19a.53.53,0,1,0-.75.75l1.17,1.18A.54.54,0,0,0,21.16,21.08Z"/><path class="cls-3" d="M12.85,12.18a.53.53,0,0,0,0-.75l-1.18-1.19a.53.53,0,0,0-.75.75l1.18,1.19a.52.52,0,0,0,.37.16A.53.53,0,0,0,12.85,12.18Z"/><path class="cls-4" d="M48.31,17.68a.58.58,0,0,0-.82-.43,4.95,4.95,0,0,1-4.59-.2,4.91,4.91,0,0,1-1.81-1.81,4.86,4.86,0,0,1-.67-2.5,5.09,5.09,0,0,1,.41-2A4.9,4.9,0,0,1,42,9.07a.59.59,0,0,0-.42-1A7.1,7.1,0,0,0,39,8.68a7,7,0,0,0-4.11,6.4,6.71,6.71,0,0,0,.56,2.73,6.92,6.92,0,0,0,3.74,3.75A7,7,0,0,0,48.27,18,.59.59,0,0,0,48.31,17.68Zm-3.92,2.7a5.77,5.77,0,0,1-4.78.1,5.84,5.84,0,0,1-1.87-1.25,6,6,0,0,1-1.25-1.87A5.83,5.83,0,0,1,40.2,9.47a6.09,6.09,0,0,0-.13,6.35,6.12,6.12,0,0,0,2.24,2.25,6.06,6.06,0,0,0,3.09.82,5.66,5.66,0,0,0,1-.08A5.84,5.84,0,0,1,44.39,20.38Z"/></g></g></svg>