<svg xmlns="http://www.w3.org/2000/svg" viewBox="0 0 34.92 34.92"><defs><style>.cls-1{fill:#8a2a7d;}.cls-2{fill:#fff;stroke:#fff;stroke-miterlimit:10;stroke-width:0.63px;}</style></defs><title>Asset 15</title><g id="Layer_2" data-name="Layer 2"><g id="Layer_2-2" data-name="Layer 2"><rect class="cls-1" width="34.92" height="34.92" rx="2.92" ry="2.92"/><path class="cls-2" d="M28,17.43a.58.58,0,0,0-.58.59v5.29a2.61,2.61,0,0,1-2.61,2.61H12a2.61,2.61,0,0,1-2.61-2.61V17.93a.59.59,0,0,0-1.17,0v5.38A3.78,3.78,0,0,0,12,27.08H24.8a3.77,3.77,0,0,0,3.77-3.77V18A.59.59,0,0,0,28,17.43Z"/><path class="cls-2" d="M18,22.46a.62.62,0,0,0,.41.17.54.54,0,0,0,.41-.17l3.7-3.7a.58.58,0,0,0-.82-.82L19,20.65V8.84a.59.59,0,1,0-1.17,0V20.65l-2.71-2.71a.58.58,0,0,0-.82.82Z"/></g></g></svg>