<svg xmlns="http://www.w3.org/2000/svg" viewBox="0 0 25.7 29.16"><defs><style>.cls-1{fill:#981780;}.cls-2{fill:#f3d75d;}</style></defs><title>Asset 9</title><g id="Layer_2" data-name="Layer 2"><g id="Layer_2-2" data-name="Layer 2"><path class="cls-1" d="M13,14.11a1.25,1.25,0,0,0-1-.51H1.19a1.17,1.17,0,0,0-.45.09,1.14,1.14,0,0,0-.54.42,1.15,1.15,0,0,0-.2.64V28a1.1,1.1,0,0,0,.2.63,1,1,0,0,0,.54.42,1,1,0,0,0,.45.1,1.28,1.28,0,0,0,.86-.34l4.53-4.36,4.54,4.36a1.21,1.21,0,0,0,.85.33,1.06,1.06,0,0,0,.45-.09,1,1,0,0,0,.54-.42,1.1,1.1,0,0,0,.2-.63V14.75A1.15,1.15,0,0,0,13,14.11Z"/><circle class="cls-2" cx="16.2" cy="9.5" r="9.5"/></g></g></svg>