<svg xmlns="http://www.w3.org/2000/svg" viewBox="0 0 35.23 44.59"><defs><style>.cls-1{fill:#8a2a7d;}.cls-2{fill:#fff;stroke:#fff;stroke-miterlimit:10;stroke-width:0.64px;}</style></defs><title>Asset 10</title><g id="Layer_2" data-name="Layer 2"><g id="Layer_2-2" data-name="Layer 2"><rect class="cls-1" width="35.23" height="35.23" rx="2.92" ry="2.92"/><path class="cls-1" d="M17.11,44.22l-6.34-11a.73.73,0,0,1,.63-1.09H24.09a.73.73,0,0,1,.63,1.09l-6.34,11A.73.73,0,0,1,17.11,44.22Z"/><path class="cls-2" d="M28.23,17.59a.58.58,0,0,0-.58.58v5.34A2.64,2.64,0,0,1,25,26.15H12.13A2.64,2.64,0,0,1,9.5,23.51V18.09a.59.59,0,1,0-1.17,0v5.42a3.81,3.81,0,0,0,3.8,3.81H25a3.81,3.81,0,0,0,3.81-3.81V18.17A.58.58,0,0,0,28.23,17.59Z"/><path class="cls-2" d="M18.16,22.66a.6.6,0,0,0,.41.17.63.63,0,0,0,.42-.17l3.73-3.73a.6.6,0,0,0,0-.84.59.59,0,0,0-.83,0l-2.73,2.74V8.91a.59.59,0,0,0-1.17,0V20.83l-2.74-2.74a.59.59,0,0,0-.83,0,.6.6,0,0,0,0,.84Z"/></g></g></svg>