<svg xmlns="http://www.w3.org/2000/svg" viewBox="0 0 21.44 19.94"><defs><style>.cls-1{fill:#9c2294;stroke:#9c2294;stroke-miterlimit:10;stroke-width:0.87px;}</style></defs><title>Asset 3</title><g id="Layer_2" data-name="Layer 2"><g id="Layer_1-2" data-name="Layer 1"><path class="cls-1" d="M20.42,9.73a.58.58,0,0,0-.59.59v5.36a2.64,2.64,0,0,1-2.64,2.64H4.25a2.65,2.65,0,0,1-2.64-2.64V10.23A.58.58,0,0,0,1,9.64a.59.59,0,0,0-.59.59v5.45A3.83,3.83,0,0,0,4.25,19.5H17.19A3.82,3.82,0,0,0,21,15.68V10.32A.59.59,0,0,0,20.42,9.73Z"/><path class="cls-1" d="M10.31,14.82a.57.57,0,0,0,.83,0l3.74-3.75a.59.59,0,0,0-.83-.83L11.31,13V1a.59.59,0,1,0-1.18,0V13L7.39,10.24a.59.59,0,0,0-.83,0,.57.57,0,0,0,0,.83Z"/></g></g></svg>