<svg xmlns="http://www.w3.org/2000/svg" viewBox="0 0 24.33 19.56"><defs><style>.cls-1{fill:#fff;stroke:#fff;stroke-miterlimit:10;stroke-width:0.74px;}</style></defs><title>Asset 26</title><g id="Layer_2" data-name="Layer 2"><g id="Layer_2-2" data-name="Layer 2"><path class="cls-1" d="M23.29,8a.67.67,0,0,0-.68.68v6.15a3,3,0,0,1-3,3H4.75a3,3,0,0,1-3-3V8.56a.68.68,0,1,0-1.35,0v6.25a4.39,4.39,0,0,0,4.38,4.38H19.58A4.39,4.39,0,0,0,24,14.81V8.66A.68.68,0,0,0,23.29,8Z"/><path class="cls-1" d="M11.49,11.71,8.34,8.57a.67.67,0,0,0-1,.95l4.3,4.3a.69.69,0,0,0,.48.2.63.63,0,0,0,.47-.2l8.3-12.3a.68.68,0,0,0-1-.95L12.84,11.71"/></g></g></svg>