<svg xmlns="http://www.w3.org/2000/svg" viewBox="0 0 40.55 51.44"><defs><style>.cls-1{fill:#8a2a7d;}.cls-2{fill:#fff;stroke:#fff;stroke-miterlimit:10;stroke-width:0.84px;}</style></defs><title>Asset 27</title><g id="Layer_2" data-name="Layer 2"><g id="Layer_2-2" data-name="Layer 2"><rect class="cls-1" width="40.55" height="40.55" rx="2.92" ry="2.92"/><path class="cls-1" d="M19.8,51.07l-7.5-13A.73.73,0,0,1,12.93,37h15a.73.73,0,0,1,.63,1.09l-7.49,13A.72.72,0,0,1,19.8,51.07Z"/><path class="cls-2" d="M33.4,20.74a.76.76,0,0,0-.77.77v7A3.47,3.47,0,0,1,29.16,32h-17a3.47,3.47,0,0,1-3.47-3.47V21.4A.77.77,0,0,0,8,20.62a.78.78,0,0,0-.78.78v7.15a5,5,0,0,0,5,5h17a5,5,0,0,0,5-5v-7A.78.78,0,0,0,33.4,20.74Z"/><path class="cls-2" d="M19.9,25l-3.6-3.6a.77.77,0,0,0-1.09,0,.76.76,0,0,0,0,1.09l4.92,4.92a.78.78,0,0,0,.55.23.73.73,0,0,0,.54-.23l9.5-14.07a.78.78,0,1,0-1.1-1.1L21.45,25"/></g></g></svg>