<svg xmlns="http://www.w3.org/2000/svg" viewBox="0 0 40.55 51.44"><defs><style>.cls-1{fill:#8a2a7d;}.cls-2{fill:#fff;stroke:#fff;stroke-miterlimit:10;stroke-width:2.21px;}.cls-3{font-size:10px;fill:#333;font-family:MuseoSans-700, Museo Sans;}</style></defs><title>Asset 28</title><g id="Layer_2" data-name="Layer 2"><g id="Layer_2-2" data-name="Layer 2"><rect class="cls-1" width="40.55" height="40.55" rx="2.92" ry="2.92"/><path class="cls-1" d="M19.8,51.07l-7.5-13A.73.73,0,0,1,12.93,37h15a.73.73,0,0,1,.63,1.09l-7.49,13A.72.72,0,0,1,19.8,51.07Z"/><g id="favorite"><path class="cls-2" d="M20.41,34.43l-1.89-1.89C11.5,26.33,6.91,22.14,6.91,17a7.33,7.33,0,0,1,7.43-7.43,8.09,8.09,0,0,1,6.07,2.84,8.11,8.11,0,0,1,6.08-2.84A7.33,7.33,0,0,1,33.92,17c0,5.13-4.6,9.32-11.62,15.53Z"/></g><text class="cls-3" transform="translate(11.1 23.46)">21x</text></g></g></svg>