<svg xmlns="http://www.w3.org/2000/svg" viewBox="0 0 34.92 34.92"><defs><style>.cls-1{fill:#8a2a7d;}.cls-2{fill:#fff;}</style></defs><title>Asset 13</title><g id="Layer_2" data-name="Layer 2"><g id="Layer_2-2" data-name="Layer 2"><rect class="cls-1" width="34.92" height="34.92" rx="2.92" ry="2.92"/><path class="cls-2" d="M31.8,8.33H29.85V7.66a.57.57,0,0,0-.42-.57,15.62,15.62,0,0,0-4.14-.53,10.64,10.64,0,0,0-7.74,2.87A10.58,10.58,0,0,0,9.8,6.56a15.62,15.62,0,0,0-4.14.53.57.57,0,0,0-.42.57v.66H3.31a.58.58,0,0,0-.58.58V27.25a.57.57,0,0,0,.58.57.55.55,0,0,0,.28-.07A20.25,20.25,0,0,1,17.41,26.6h.28a19.91,19.91,0,0,1,13.82,1.15.6.6,0,0,0,.58,0,.59.59,0,0,0,.29-.5V8.9A.57.57,0,0,0,31.8,8.33Zm-27.92,18V9.48H5.25V23.89a.59.59,0,0,0,.57.58h.1a25.19,25.19,0,0,1,3.59-.29,15.11,15.11,0,0,1,4.9.75A21.06,21.06,0,0,0,3.88,26.33ZM9.51,23a25.18,25.18,0,0,0-3.13.2V8.11a16.27,16.27,0,0,1,3.41-.38A9.39,9.39,0,0,1,17,10.55l0,14.31A13.47,13.47,0,0,0,9.51,23Zm8.62-12.48A9.45,9.45,0,0,1,25.3,7.73a16.87,16.87,0,0,1,3.4.38V23.23A26.75,26.75,0,0,0,25.6,23a13.53,13.53,0,0,0-7.47,1.84ZM31.22,26.33a21.14,21.14,0,0,0-10.55-1.41,14.72,14.72,0,0,1,4.93-.75,24.29,24.29,0,0,1,3.61.29.58.58,0,0,0,.65-.49.28.28,0,0,0,0-.09V9.48h1.37Z"/></g></g></svg>