<svg xmlns="http://www.w3.org/2000/svg" viewBox="0 0 15.94 19.11"><defs><style>.cls-1{fill:#981780;}</style></defs><title>Asset 2</title><g id="Layer_2" data-name="Layer 2"><g id="Layer_1-2" data-name="Layer 1"><path class="cls-1" d="M7.85,9.21a4.49,4.49,0,0,0,3.26-1.35A4.48,4.48,0,0,0,12.45,4.6a4.45,4.45,0,0,0-1.34-3.25A4.45,4.45,0,0,0,7.85,0,4.42,4.42,0,0,0,4.6,1.35,4.42,4.42,0,0,0,3.25,4.6,4.45,4.45,0,0,0,4.6,7.86,4.46,4.46,0,0,0,7.85,9.21Z"/><path class="cls-1" d="M15.91,14.69a11.72,11.72,0,0,0-.16-1.2,10.36,10.36,0,0,0-.3-1.22,5.91,5.91,0,0,0-.5-1.13,3.92,3.92,0,0,0-.75-1,3.48,3.48,0,0,0-1.08-.68,3.85,3.85,0,0,0-1.38-.25,1.42,1.42,0,0,0-.75.32l-.78.5a4.63,4.63,0,0,1-1,.45A4,4,0,0,1,8,10.69a4,4,0,0,1-1.23-.19,4.63,4.63,0,0,1-1-.45L5,9.55a1.37,1.37,0,0,0-.75-.32,3.89,3.89,0,0,0-1.38.25,3.48,3.48,0,0,0-1.08.68,4.17,4.17,0,0,0-.75,1,5.91,5.91,0,0,0-.5,1.13,10.36,10.36,0,0,0-.3,1.22A11.39,11.39,0,0,0,0,14.7c0,.36,0,.74,0,1.12a3.18,3.18,0,0,0,.94,2.4,3.4,3.4,0,0,0,2.43.89h9.2A3.38,3.38,0,0,0,15,18.22a3.14,3.14,0,0,0,.94-2.4C15.94,15.44,15.93,15.06,15.91,14.69Z"/></g></g></svg>