<svg xmlns="http://www.w3.org/2000/svg" viewBox="0 0 16.5 16.5"><defs><style>.cls-1{fill:#981780;}</style></defs><title>Asset 6</title><g id="Layer_2" data-name="Layer 2"><g id="Layer_1-2" data-name="Layer 1"><path class="cls-1" d="M16.35,2A1.72,1.72,0,0,0,16.2.3,1.71,1.71,0,0,0,14.46.16a5,5,0,0,0-2,1.27L10.55,3.31,2.72,1.44a.33.33,0,0,0-.35.1L.86,3a.39.39,0,0,0-.11.32.39.39,0,0,0,.2.28l6,3.29L3.89,10,1.6,9.36a.14.14,0,0,0-.09,0,.37.37,0,0,0-.27.11L.11,10.59a.38.38,0,0,0,0,.57l3,2.22,2.23,3a.37.37,0,0,0,.28.15h0a.36.36,0,0,0,.27-.1l1.13-1.13a.35.35,0,0,0,.1-.37l-.63-2.28,3.05-3,3.29,6a.35.35,0,0,0,.25.19h.08a.31.31,0,0,0,.22-.07l1.51-1.13a.36.36,0,0,0,.14-.39L13.18,6l1.89-1.89A5.22,5.22,0,0,0,16.35,2Z"/></g></g></svg>