<svg xmlns="http://www.w3.org/2000/svg" viewBox="0 0 64.97 35.93"><defs><style>.cls-1{fill:#dbdbdb;}.cls-1,.cls-2{stroke:#981780;stroke-miterlimit:10;stroke-width:1.97px;}.cls-2,.cls-3{fill:#981780;}.cls-4{fill:#fff;}</style></defs><title>Asset 16</title><g id="Layer_2" data-name="Layer 2"><g id="Layer_2-2" data-name="Layer 2"><rect class="cls-1" x="0.98" y="0.98" width="63" height="33.96" rx="16.98" ry="16.98"/><circle class="cls-2" cx="47.99" cy="17.96" r="13.04"/><path class="cls-3" d="M18.83,22.32a4.23,4.23,0,1,0-4.21-4.24A4.23,4.23,0,0,0,18.83,22.32Zm0-7.23a3,3,0,1,1-3,3A3,3,0,0,1,18.85,15.09Z"/><path class="cls-3" d="M19.48,11.91V10a.62.62,0,0,0-1.24,0v1.95a.62.62,0,1,0,1.23,0Z"/><path class="cls-3" d="M18.21,24.28v1.94a.62.62,0,0,0,1.24,0V24.28a.62.62,0,1,0-1.23,0Z"/><path class="cls-3" d="M23.67,14.17l1.38-1.36a.63.63,0,0,0,0-.88.62.62,0,0,0-.87,0L22.8,13.3a.62.62,0,0,0,0,.87.64.64,0,0,0,.44.18A.6.6,0,0,0,23.67,14.17Z"/><path class="cls-3" d="M12.64,24.26a.6.6,0,0,0,.44.18.61.61,0,0,0,.43-.18l1.38-1.37a.61.61,0,0,0,0-.87A.62.62,0,0,0,14,22l-1.38,1.36A.63.63,0,0,0,12.64,24.26Z"/><path class="cls-3" d="M27.59,18.12A.61.61,0,0,0,27,17.5H25a.62.62,0,1,0,0,1.23H27A.62.62,0,0,0,27.59,18.12Z"/><path class="cls-3" d="M10.71,18.69h1.95a.62.62,0,1,0,0-1.23H10.72a.62.62,0,0,0,0,1.24Z"/><path class="cls-3" d="M24.57,24.48A.64.64,0,0,0,25,24.3a.62.62,0,0,0,0-.87l-1.37-1.38a.61.61,0,0,0-.87,0,.62.62,0,0,0,0,.87l1.36,1.38A.64.64,0,0,0,24.57,24.48Z"/><path class="cls-3" d="M14.92,14.14a.62.62,0,0,0,0-.87l-1.36-1.38a.63.63,0,0,0-.88,0,.62.62,0,0,0,0,.87l1.37,1.38a.6.6,0,0,0,.43.18A.57.57,0,0,0,14.92,14.14Z"/><path class="cls-4" d="M56.1,20.54a.69.69,0,0,0-.19-.37.64.64,0,0,0-.76-.14,5.72,5.72,0,0,1-5.33-.23,5.77,5.77,0,0,1-2.11-2.11,5.78,5.78,0,0,1-.29-5.23,5.73,5.73,0,0,1,1.4-1.93.68.68,0,0,0-.49-1.18,8.33,8.33,0,0,0-3.09.73,8.14,8.14,0,0,0-4.13,10.6A8.15,8.15,0,0,0,45.46,25a8.19,8.19,0,0,0,10.59-4.1A.69.69,0,0,0,56.1,20.54Zm-4.56,3.13a6.73,6.73,0,0,1-2.91.65A6.63,6.63,0,0,1,46,23.78a7,7,0,0,1-2.17-1.45,6.83,6.83,0,0,1-1.45-2.17A6.79,6.79,0,0,1,46.68,11a7.12,7.12,0,0,0-.15,7.39,7.2,7.2,0,0,0,2.6,2.6,7,7,0,0,0,3.59,1,6.45,6.45,0,0,0,1.17-.1A6.8,6.8,0,0,1,51.54,23.67Z"/></g></g></svg>