<svg xmlns="http://www.w3.org/2000/svg" viewBox="0 0 63.02 80.34"><defs><style>.cls-1{fill:#f3d75d;}.cls-2{fill:#fff;}</style></defs><title>Asset 3</title><g id="Layer_2" data-name="Layer 2"><g id="Layer_1-2" data-name="Layer 1"><rect class="cls-1" width="63.02" height="63.02" rx="2.92" ry="2.92"/><path class="cls-1" d="M31.11,80,18.77,58.59a.73.73,0,0,1,.63-1.09H44.09a.73.73,0,0,1,.63,1.09L32.38,80A.73.73,0,0,1,31.11,80Z"/><path class="cls-2" d="M50.62,18q.89-2.65-.33-4.09-1.44-1.22-4.09-.33a12.07,12.07,0,0,0-4.76,3L37,21l-18.39-4.4a.81.81,0,0,0-.83.22l-3.54,3.54a.88.88,0,0,0-.25.75,1,1,0,0,0,.47.66l14.05,7.72-7.16,7.16L16,35.16a.51.51,0,0,0-.22,0,.86.86,0,0,0-.63.25l-2.66,2.68a1,1,0,0,0-.25.7.84.84,0,0,0,.36.63l7,5.23,5.23,7a.91.91,0,0,0,.66.36h.06a.87.87,0,0,0,.63-.24L28.81,49a.85.85,0,0,0,.22-.86l-1.47-5.36,7.16-7.16,7.72,14.05a.79.79,0,0,0,.58.44.54.54,0,0,0,.19,0,.8.8,0,0,0,.53-.17l3.54-2.65a.86.86,0,0,0,.33-.92L43.18,27.2l4.46-4.45A12.07,12.07,0,0,0,50.62,18Z"/></g></g></svg>