<svg xmlns="http://www.w3.org/2000/svg" viewBox="0 0 63.02 80.34"><defs><style>.cls-1{fill:#f3d75d;}.cls-2{fill:#fff;}</style></defs><title>Asset 4</title><g id="Layer_2" data-name="Layer 2"><g id="Layer_1-2" data-name="Layer 1"><rect class="cls-1" width="63.02" height="63.02" rx="2.92" ry="2.92"/><path class="cls-1" d="M31.11,80,18.77,58.59a.73.73,0,0,1,.63-1.09H44.09a.73.73,0,0,1,.63,1.09L32.38,80A.73.73,0,0,1,31.11,80Z"/><path class="cls-2" d="M45,28.36a2.47,2.47,0,0,0-3.43-.68l-1.06.71c-.07-.64-.11-1-.12-1-.22-1.32-1.12-3.05-4.1-4v-2.8a4.88,4.88,0,0,0,1.65-3.77v-.06a6.3,6.3,0,0,0-.22-1.55l1.75-2.9a.82.82,0,0,0-1-1.19l-2.62,1a4.72,4.72,0,0,0-.91-.62l-1.14-4a.82.82,0,0,0-1.58,0l-1.14,4a4.72,4.72,0,0,0-.91.62l-2.61-1a.82.82,0,0,0-1,1.19l1.74,2.9a5.85,5.85,0,0,0-.21,1.55v.06a4.9,4.9,0,0,0,1.64,3.77v1.19a.82.82,0,0,1-.8.82l-.56,0h-.28c-2.71,0-4.63-3-5.42-4.47a2.45,2.45,0,0,0-.35-4.48V11.82h1.65a.83.83,0,0,0,0-1.65H23A7.25,7.25,0,0,0,20.28,7a.84.84,0,0,0-.77-.08,5.23,5.23,0,0,0-2.77,3.23h-1a.83.83,0,0,0,0,1.65h1.65v1.79a2.46,2.46,0,0,0,.36,4.74c.62.93,2.53,4,2.12,6.49a8.55,8.55,0,0,0,1.56,6.74l0,0a13.26,13.26,0,0,0,1.4,1.6c.16.16.31.32.45.49a2.5,2.5,0,0,1,.39.74c-1.2.78-2.2,1.68-2.2,2.87A3.1,3.1,0,0,0,24,40.51c0,.19,0,.38,0,.58-.1,1.81-.21,3.85-.15,6a36.42,36.42,0,0,0,.33,4.17h-.19a3.29,3.29,0,0,0-3.29,3.29,1.64,1.64,0,0,0,1.64,1.65H42a1.65,1.65,0,0,0,1.65-1.65,3.3,3.3,0,0,0-3.08-3.27,54.51,54.51,0,0,0,.66-10.83l6.12-4.1A2.46,2.46,0,0,0,48.07,33ZM25.44,46.09c0-1.76.08-3.42.16-4.91,0-.51,0-1,.08-1.48.37-.79,1.52-2.38,4.84-2.38s6.43-2.81,8.62-5.8c0,.43.07.88.11,1.38.15,2,.3,4.55.36,7.18,0,.56,0,1.11,0,1.64A4,4,0,0,1,37.93,39a2.57,2.57,0,0,0-.33-1.38,1.42,1.42,0,0,0-1.21-.67c-1.74,0-4.22,3.14-4.22,5.34C32.17,43.47,28.28,45.35,25.44,46.09ZM29.71,17c.29-.32,1.15-1.06,3.28-1.06s3,.75,3.27,1.05A3.13,3.13,0,0,1,33,20,3.11,3.11,0,0,1,29.72,17ZM30,13.82a.81.81,0,0,0,.91-.2,3.22,3.22,0,0,1,1.11-.79.83.83,0,0,0,.48-.54L33,10.71l.45,1.58a.86.86,0,0,0,.48.54,3.2,3.2,0,0,1,1.13.8.84.84,0,0,0,.9.2l.83-.33-.67,1.11a.73.73,0,0,0-.08.25,7.37,7.37,0,0,0-3-.57,7.21,7.21,0,0,0-3,.57.73.73,0,0,0-.08-.25l-.68-1.12Zm-9.38-.36H19V11.82h1.65Zm-.9-4.79a6.53,6.53,0,0,1,1.42,1.5H18.51A3.63,3.63,0,0,1,19.75,8.67Zm-1.57,6.44h3.29a.82.82,0,0,1,0,1.64H18.18a.82.82,0,0,1,0-1.64Zm1.51,3.29h1.25a12.55,12.55,0,0,0,3.8,4.71,11.41,11.41,0,0,1-2.52,6.7,6.9,6.9,0,0,1-.76-4.69C21.87,22.66,20.6,20,19.69,18.4Zm3.49,12.78a12.23,12.23,0,0,0,3.13-7.26,5.43,5.43,0,0,0,1.74.29h.35l.55,0a2.46,2.46,0,0,0,2.39-2.47v-.28a5.43,5.43,0,0,0,3.29,0v2.51s0,0,0,0a.51.51,0,0,0,0,.17,1.21,1.21,0,0,0,0,.14l.08.13a.57.57,0,0,0,.11.11l.12.09.15.07h0a15.48,15.48,0,0,0-4.6,4.84c-.7,1.41-2.87,2.59-4.78,3.64l-.72.4a4.72,4.72,0,0,0-.51-.87c-.19-.23-.38-.44-.59-.65S23.47,31.53,23.18,31.18Zm-.06,6.14c0-.42.65-1,1.95-1.81.48-.29,1-.57,1.56-.88,2.12-1.16,4.52-2.47,5.45-4.34.7-1.4,2.46-3.12,5-4.86a3.09,3.09,0,0,1,1.72,2.17s.06.48.15,1.31c-2,3.41-5.38,6.77-8.38,6.77-4.1,0-5.71,2.07-6.29,3.22A1.47,1.47,0,0,1,23.12,37.32Zm2.35,10.45c2.58-.63,8.34-2.71,8.34-5.51a5.42,5.42,0,0,1,2.44-3.66,2.22,2.22,0,0,1,0,.37c0,2.09,1.74,3.73,3.35,4.8a42.39,42.39,0,0,1-.7,7.54H25.79A34.74,34.74,0,0,1,25.47,47.77ZM42,54.6H22.29A1.64,1.64,0,0,1,23.94,53H40.39A1.64,1.64,0,0,1,42,54.6ZM46.48,35l-5.26,3.51c0-.4,0-.81,0-1.2v-.1c0-.38,0-.77-.06-1.14v-.06q0-.51-.06-1l0-.21c0-.31,0-.61-.05-.9l0-.3c0-.22,0-.43,0-.64l0-.41c0-.19,0-.37,0-.55l0-.36c0-.21,0-.41-.05-.6l0-.3,0-.38,0-.16,1.8-1.2a.82.82,0,0,1,1.14.23L46.7,33.9A.83.83,0,0,1,46.48,35Z"/></g></g></svg>