<svg xmlns="http://www.w3.org/2000/svg" viewBox="0 0 63.02 80.34"><defs><style>.cls-1{fill:#f3d75d;}.cls-2{fill:#fff;}</style></defs><title>Asset 2</title><g id="Layer_2" data-name="Layer 2"><g id="Layer_1-2" data-name="Layer 1"><rect class="cls-1" width="63.02" height="63.02" rx="2.92" ry="2.92"/><path class="cls-1" d="M31.11,80,18.77,58.59a.73.73,0,0,1,.63-1.09H44.09a.73.73,0,0,1,.63,1.09L32.38,80A.73.73,0,0,1,31.11,80Z"/><path class="cls-2" d="M39,18.76h1.3v1.3H39Z"/><path class="cls-2" d="M41.61,18.76h1.31v1.3H41.61Z"/><path class="cls-2" d="M46.82,40.25H43.57V22.67h2a.65.65,0,0,0,.63-.5l1.3-5.2a.65.65,0,0,0-.11-.56.67.67,0,0,0-.52-.25H44.36l.39-2h.77V12.9H41.61V11.6h1.31V10.3H39v1.3h1.3v1.3H36.4v1.3h.77l.39,2H35.1a.63.63,0,0,0-.51.25.65.65,0,0,0-.12.56l1.3,5.2a.65.65,0,0,0,.63.5h2V40.25H16.22V39h1.3V37.64H9.71V39H11v1.3H9.06a.66.66,0,0,0-.66.65v7.81a.67.67,0,0,0,.66.66H46.82a.66.66,0,0,0,.65-.66V40.9A.65.65,0,0,0,46.82,40.25Zm-3.4-26-.39,2H38.89l-.39-2Zm-6.51,7.17-.32-1.31h1.12v-1.3H36.26l-.32-1.3H46l-.33,1.3H44.22v1.3h1.12L45,21.37Zm5.35,1.3V40.25h-2.6V22.67ZM12.31,39h2.61v1.3H12.31Zm9.12,9.11H17.52v-1.3h3.91Zm0-2.6H17.52v-1.3h3.91Zm5.21,2.6H22.73v-1.3h3.91Zm0-2.6H22.73v-1.3h3.91Zm5.21,2.6H27.94v-1.3h3.91Zm0-2.6H27.94v-1.3h3.91Zm5.2,2.6h-3.9v-1.3h3.9Zm0-2.6h-3.9v-1.3h3.9Zm5.21,2.6h-3.9v-1.3h3.9Zm0-2.6h-3.9v-1.3h3.9Zm3.91,2.6h-2.6V43.5a.66.66,0,0,0-.65-.65h-26a.66.66,0,0,0-.65.65v4.56H9.71V41.55H46.17Z"/><path class="cls-2" d="M13.61,44.16h1.31v1.3H13.61Z"/><path class="cls-2" d="M11,44.16h1.3v1.3H11Z"/></g></g></svg>