<svg xmlns="http://www.w3.org/2000/svg" viewBox="0 0 32 37"><defs><style>.cls-1{fill:#981780;}.cls-2{fill:#f3d75d;}</style></defs><title>Asset 5</title><g id="Layer_2" data-name="Layer 2"><g id="Layer_1-2" data-name="Layer 1"><path class="cls-1" d="M18.82,20.35a2,2,0,0,0-.17-2,2,2,0,0,0-2-.17,5.84,5.84,0,0,0-2.33,1.47l-2.17,2.17-9-2.16a.39.39,0,0,0-.4.11L1,21.51a.39.39,0,0,0-.12.36.46.46,0,0,0,.23.33L8,26,4.47,29.49l-2.63-.72h-.1a.45.45,0,0,0-.32.12L.12,30.19a.48.48,0,0,0-.12.34.43.43,0,0,0,.18.32l3.41,2.56,2.57,3.41a.49.49,0,0,0,.32.18h0a.43.43,0,0,0,.31-.12l1.3-1.3a.42.42,0,0,0,.11-.42l-.72-2.63L11,29,14.8,35.9a.39.39,0,0,0,.29.22h.09a.35.35,0,0,0,.26-.08l1.74-1.3a.43.43,0,0,0,.16-.45l-2.17-9.43,2.18-2.18A5.94,5.94,0,0,0,18.82,20.35Z"/></g><g id="Layer_2-2" data-name="Layer 2"><circle class="cls-2" cx="20" cy="12" r="12"/></g></g></svg>